<svg xmlns="http://www.w3.org/2000/svg" viewBox="0 0 160 160" role="img" aria-label="Coach AI">
  <defs><linearGradient id="p" x1="0" y1="0" x2="1" y2="1"><stop stop-color="#ff4fa3"/><stop offset="1" stop-color="#a855f7"/></linearGradient></defs>
  <circle cx="80" cy="80" r="72" fill="#17101f" stroke="#ffb8dc" stroke-width="3"/>
  <path d="M80 18v14" stroke="#ff4fa3" stroke-width="6" stroke-linecap="round"/><circle cx="80" cy="13" r="6" fill="#ff4fa3"/>
  <rect x="30" y="42" width="100" height="78" rx="28" fill="url(#p)"/><rect x="40" y="52" width="80" height="55" rx="20" fill="#24152e"/>
  <circle cx="62" cy="78" r="8" fill="#ffb8dc"/><circle cx="98" cy="78" r="8" fill="#ffb8dc"/><path d="M62 92q18 16 36 0" fill="none" stroke="#ffb8dc" stroke-width="5" stroke-linecap="round"/>
  <path d="M24 65h-8v28h8M136 65h8v28h-8" fill="none" stroke="#c9a7ff" stroke-width="7" stroke-linecap="round"/>
  <path d="M62 120v16M98 120v16" stroke="#ff4fa3" stroke-width="8" stroke-linecap="round"/><path d="M52 138h20M88 138h20" stroke="#ffb8dc" stroke-width="6" stroke-linecap="round"/>
  <path d="M68 113h24v13H68z" fill="#fff7fc" opacity=".9"/><path d="M80 115v9M73 119h14" stroke="#ff4fa3" stroke-width="3"/>
</svg>
